<svg xmlns="http://www.w3.org/2000/svg"><symbol id="super-dromes" viewBox="0 0 256 256"><path d="M101.1 149.6h18v11.34h-18zm21.6 0h11.5v11.34h-11.5zm15.2 0h18v11.34h-18zm-9.4-75.1c-21.1 0-38.7 12.8-39.6 36h79.2c-.9-23.2-18.5-36-39.6-36zM86 149.6h11.5v11.34H86zM75.2 146h106.6v-31.9H75.2zm52.4-12.3h43.9a1.8 1.8 0 0 1 0 3.6h-43.9a1.8 1.8 0 1 1 0-3.6z"/><path d="M128.5 14.4L33.6 69.2v109.6l94.9 54.8 94.9-54.8V69.2zm56.9 133.4a1.7 1.7 0 0 1-1.8 1.8h-9v11.3h9a1.8 1.8 0 1 1 0 3.6H73.4a1.8 1.8 0 0 1 0-3.6h9v-11.3h-9a1.7 1.7 0 0 1-1.8-1.8v-35.5a1.7 1.7 0 0 1 1.8-1.8h11.9c.9-25.6 20-39.6 43.2-39.6s42.3 14 43.2 39.6h11.9a1.7 1.7 0 0 1 1.8 1.8z"/><path d="M159.5 149.6H171v11.34h-11.5z"/></symbol><symbol id="mecha-stilts" viewBox="0 0 256 256"><path d="M71.3 140.9h48.4v19.98H71.3zm48.4-17.1V87.5l-25.9 36.3h25.9zm3.6-40.1v40.1H173a53.6 53.6 0 0 0-49.7-40.1zm0 57.2h8.1v19.98h-8.1zm-5.4-57c-23 1.4-42.3 18.1-47.9 39.9h19.3z"/><path d="M121.5 14.4L26.6 69.2v109.6l94.9 54.8 94.9-54.8V69.2zm77.6 126.5h-23.8v21.8a1.7 1.7 0 0 1-1.8 1.8h-104a1.7 1.7 0 0 1-1.8-1.8v-21.8H43.9a1.8 1.8 0 1 1 0-3.6h13.5v-11.7a1.7 1.7 0 0 1 1.8-1.8h7a57.2 57.2 0 0 1 55.1-43.7c.2-.2.4-.2.7 0a57 57 0 0 1 54.8 43.7h7a1.7 1.7 0 0 1 1.8 1.8v11.7h13.5a1.8 1.8 0 1 1 0 3.6z"/><path d="M61 127.4h121v9.9H61zm74 13.5h36.7v19.98H135z"/></symbol><symbol id="space-bubbles" viewBox="0 0 256 256"><path d="M93.2 146.7H81.3l-15.8 18.7L68 169l30.4-16-5.2-6.3zm-21.9-12.9h98.5v9.36H71.3zm86-3.6a45.2 45.2 0 0 0 2.2-13.7 39 39 0 0 0-78 0c0 4.7.4 9.5 2.2 13.7zm-73.4 34.7h24.4l-7.3-9-17.1 9zm61.9-18.2l-5.4 6.3 30.6 16 2.5-3.4-15.8-18.9h-11.9z"/><path d="M119.5 18.4L24.6 73.2v109.6l94.9 54.8 94.9-54.8V73.2zm57.6 148.1l-4.1 6a2 2 0 0 1-2.4.5l-8.6-4.5H76.8l-8.6 4.5a1.9 1.9 0 0 1-2.3-.5l-4.2-6a2 2 0 0 1 .2-2.1l14.9-17.7h-7.3a1.7 1.7 0 0 1-1.8-1.8V132a1.7 1.7 0 0 1 1.8-1.8h10.4a49.4 49.4 0 0 1-2-13.7 42.6 42.6 0 0 1 85.2 0 45.9 45.9 0 0 1-2 13.7h10.4a1.7 1.7 0 0 1 1.8 1.8v12.9a1.7 1.7 0 0 1-1.8 1.8h-9.2l14.8 17.7a1.8 1.8 0 0 1 0 2.1z"/><path d="M130.7 164.9h24.4l-17.1-9-7.3 9zm-32.8-18.2l15.1 18.2h13l15.1-18.2H97.9z"/></symbol></svg>