<svg xmlns="http://www.w3.org/2000/svg"><symbol id="icon-1" viewBox="0 0 256 256"><path d="M128.7 0l110.8 64v128l-110.8 64-110.9-64V64L128.7 0z"/><path fill="#fff" d="M66 179.9l-4.8-6.9a2.2 2.2 0 0 1 .2-2.5l17.4-20.6h-8.6a2.1 2.1 0 0 1-2.1-2.1v-15.2a2.1 2.1 0 0 1 2.1-2.1h12.2a57.3 57.3 0 0 1-2.3-16 49.9 49.9 0 0 1 49.8-49.6c27.1 0 49.6 22.5 49.6 49.6a50.8 50.8 0 0 1-2.3 16h12.2a2 2 0 0 1 2.1 2.1v15.2a2 2 0 0 1-2.1 2.1h-10.7l17.2 20.6a2 2 0 0 1 0 2.5l-4.8 6.9a2.2 2.2 0 0 1-2.7.7l-10.1-5.3H78.8l-10 5.3a2.4 2.4 0 0 1-2.8-.7zm32-30H84.1l-18.5 21.8 2.9 4.2 35.6-18.7zm-25.7-15.2v11h115v-11zm14.5-4.2h86a50.1 50.1 0 0 0 2.5-16 45.5 45.5 0 0 0-91 0c0 5.5.4 11.2 2.5 16zm20.2 30.1l-20 10.5h28.6zm-3.6-10.7l17.7 21.2h15.1l17.7-21.2zm46.9 10.7l-8.6 10.5h28.6zm22.9-10.7h-13.8l-6.3 7.3 35.7 18.7 2.9-4z"/></symbol><symbol id="icon-3" viewBox="0 0 256 256"><path d="M127.7 0l110.8 64v128l-110.8 64-110.9-64V64L127.7 0z"/><path fill="#fff" d="M66.9 175.3a2 2 0 0 1-2.1-2.1v-25.4H37.1a2.3 2.3 0 0 1-2.1-2.1 2.2 2.2 0 0 1 2.1-2.1h15.7v-13.7a2 2 0 0 1 2.1-2.1h8.2a66.7 66.7 0 0 1 64.4-51.1c.2-.2.4-.2.8 0 31.1.2 57 22.1 63.9 51.1h8.2a1.9 1.9 0 0 1 2.1 2.1v13.7h15.8a2.3 2.3 0 0 1 2.1 2.1 2.3 2.3 0 0 1-2.1 2.1h-27.8v25.4a1.9 1.9 0 0 1-2.1 2.1zM57 132v11.6h141.3V132zm66.5-50.9c-26.9 1.7-49.4 21.2-56 46.7H90zM69 147.8v23.3h56.6v-23.3zm56.6-62.5l-30.3 42.5h30.3zm4.2-4.4v46.9h58a62.5 62.5 0 0 0-58-46.9zm0 66.9v23.3h9.4v-23.3zm13.6 0v23.3h42.9v-23.3z"/></symbol><symbol id="icon-2" viewBox="0 0 256 256"><path d="M123.9 0l110.9 64v128.1l-110.9 64-110.9-64V64L123.9 0z"/><path fill="#fff" d="M59.5 175.4a2.3 2.3 0 0 1-2.1-2.1 2.3 2.3 0 0 1 2.1-2.1h10.6v-13.3H59.5a2 2 0 0 1-2.1-2.1v-41.4a2 2 0 0 1 2.1-2.1h13.9C74.5 82.4 96.8 66 123.9 66s49.4 16.4 50.5 46.3h13.8a1.9 1.9 0 0 1 2.1 2.1v41.4a1.9 1.9 0 0 1-2.1 2.1h-10.5v13.3h10.5a2.2 2.2 0 0 1 2.1 2.1 2.3 2.3 0 0 1-2.1 2.1zm2.1-58.9v37.2h124.5v-37.2zm12.7 41.4v13.3h13.4v-13.3zm3.3-45.6h92.6c-1.1-27.2-21.7-42.1-46.3-42.1s-45.2 14.9-46.3 42.1zm14.3 45.6v13.3H113v-13.3zm25.3 0v13.3h13.4v-13.3zm57-14.3h-51.4a2.3 2.3 0 0 1-2.1-2.1 2.3 2.3 0 0 1 2.1-2.1h51.4a2.3 2.3 0 0 1 2.1 2.1 2.3 2.3 0 0 1-2.1 2.1zm-39.4 14.3v13.3h21.1v-13.3zm25.3 0v13.3h13.4v-13.3z"/></symbol></svg>