<svg xmlns="http://www.w3.org/2000/svg" width="256" height="256" viewBox="0 0 256 256"><path d="M128.7 0l110.8 64v128l-110.8 64-110.9-64V64L128.7 0z"/><path fill="#fff" d="M66 179.9l-4.8-6.9a2.2 2.2 0 0 1 .2-2.5l17.4-20.6h-8.6a2.1 2.1 0 0 1-2.1-2.1v-15.2a2.1 2.1 0 0 1 2.1-2.1h12.2a57.3 57.3 0 0 1-2.3-16 49.9 49.9 0 0 1 49.8-49.6c27.1 0 49.6 22.5 49.6 49.6a50.8 50.8 0 0 1-2.3 16h12.2a2 2 0 0 1 2.1 2.1v15.2a2 2 0 0 1-2.1 2.1h-10.7l17.2 20.6a2 2 0 0 1 0 2.5l-4.8 6.9a2.2 2.2 0 0 1-2.7.7l-10.1-5.3H78.8l-10 5.3a2.4 2.4 0 0 1-2.8-.7zm32-30H84.1l-18.5 21.8 2.9 4.2 35.6-18.7zm-25.7-15.2v11h115v-11zm14.5-4.2h86a50.1 50.1 0 0 0 2.5-16 45.5 45.5 0 0 0-91 0c0 5.5.4 11.2 2.5 16zm20.2 30.1l-20 10.5h28.6zm-3.6-10.7l17.7 21.2h15.1l17.7-21.2zm46.9 10.7l-8.6 10.5h28.6zm22.9-10.7h-13.8l-6.3 7.3 35.7 18.7 2.9-4z"/></svg>