<svg xmlns="http://www.w3.org/2000/svg" width="256" height="256" viewBox="0 0 256 256"><path d="M127.7 0l110.8 64v128l-110.8 64-110.9-64V64L127.7 0z"/><path fill="#fff" d="M66.9 175.3a2 2 0 0 1-2.1-2.1v-25.4H37.1a2.3 2.3 0 0 1-2.1-2.1 2.2 2.2 0 0 1 2.1-2.1h15.7v-13.7a2 2 0 0 1 2.1-2.1h8.2a66.7 66.7 0 0 1 64.4-51.1c.2-.2.4-.2.8 0 31.1.2 57 22.1 63.9 51.1h8.2a1.9 1.9 0 0 1 2.1 2.1v13.7h15.8a2.3 2.3 0 0 1 2.1 2.1 2.3 2.3 0 0 1-2.1 2.1h-27.8v25.4a1.9 1.9 0 0 1-2.1 2.1zM57 132v11.6h141.3V132zm66.5-50.9c-26.9 1.7-49.4 21.2-56 46.7H90zM69 147.8v23.3h56.6v-23.3zm56.6-62.5l-30.3 42.5h30.3zm4.2-4.4v46.9h58a62.5 62.5 0 0 0-58-46.9zm0 66.9v23.3h9.4v-23.3zm13.6 0v23.3h42.9v-23.3z"/></svg>