<svg xmlns="http://www.w3.org/2000/svg" width="256" height="256" viewBox="0 0 256 256"><path d="M123.9 0l110.9 64v128.1l-110.9 64-110.9-64V64L123.9 0z"/><path fill="#fff" d="M59.5 175.4a2.3 2.3 0 0 1-2.1-2.1 2.3 2.3 0 0 1 2.1-2.1h10.6v-13.3H59.5a2 2 0 0 1-2.1-2.1v-41.4a2 2 0 0 1 2.1-2.1h13.9C74.5 82.4 96.8 66 123.9 66s49.4 16.4 50.5 46.3h13.8a1.9 1.9 0 0 1 2.1 2.1v41.4a1.9 1.9 0 0 1-2.1 2.1h-10.5v13.3h10.5a2.2 2.2 0 0 1 2.1 2.1 2.3 2.3 0 0 1-2.1 2.1zm2.1-58.9v37.2h124.5v-37.2zm12.7 41.4v13.3h13.4v-13.3zm3.3-45.6h92.6c-1.1-27.2-21.7-42.1-46.3-42.1s-45.2 14.9-46.3 42.1zm14.3 45.6v13.3H113v-13.3zm25.3 0v13.3h13.4v-13.3zm57-14.3h-51.4a2.3 2.3 0 0 1-2.1-2.1 2.3 2.3 0 0 1 2.1-2.1h51.4a2.3 2.3 0 0 1 2.1 2.1 2.3 2.3 0 0 1-2.1 2.1zm-39.4 14.3v13.3h21.1v-13.3zm25.3 0v13.3h13.4v-13.3z"/></svg>